HIERARCHY
ROOT Hips
{
	OFFSET 0.000000 0.000000 0.000000
	CHANNELS 6 Xposition Yposition Zposition Yrotation Xrotation Zrotation
	JOINT Chest
	{
		OFFSET 0.000000 -0.009281 11.569106
		CHANNELS 3 Yrotation Xrotation Zrotation
		JOINT Chest2
		{
			OFFSET -0.000000 0.016865 9.269641
			CHANNELS 3 Yrotation Xrotation Zrotation
			JOINT Chest3
			{
				OFFSET -0.000000 0.000001 8.374491
				CHANNELS 3 Yrotation Xrotation Zrotation
				JOINT Chest4
				{
					OFFSET -0.000000 0.000001 8.374493
					CHANNELS 3 Yrotation Xrotation Zrotation
					JOINT Neck
					{
						OFFSET -0.000000 0.000002 12.152554
						CHANNELS 3 Yrotation Xrotation Zrotation
						JOINT Head
						{
							OFFSET -0.000000 0.040101 7.802319
							CHANNELS 3 Yrotation Xrotation Zrotation
							End Site
							{
								OFFSET -0.000000 0.020947 14.853096
							}
						}
					}
					JOINT RightCollar
					{
						OFFSET 2.894404 0.000001 6.791374
						CHANNELS 3 Yrotation Xrotation Zrotation
						JOINT RightShoulder
						{
							OFFSET 13.574684 0.000001 0.000000
							CHANNELS 3 Yrotation Xrotation Zrotation
							JOINT RightElbow
							{
								OFFSET 23.923903 0.000002 0.000000
								CHANNELS 3 Yrotation Xrotation Zrotation
								JOINT RightWrist
								{
									OFFSET 19.846718 0.012767 0.000000
									CHANNELS 3 Yrotation Xrotation Zrotation
									End Site
									{
										OFFSET 14.973145 0.000001 0.000000
									}
								}
							}
						}
					}
					JOINT LeftCollar
					{
						OFFSET -2.894404 0.000001 6.791374
						CHANNELS 3 Yrotation Xrotation Zrotation
						JOINT LeftShoulder
						{
							OFFSET -13.574684 -0.000001 0.000000
							CHANNELS 3 Yrotation Xrotation Zrotation
							JOINT LeftElbow
							{
								OFFSET -23.923903 -0.000002 0.000000
								CHANNELS 3 Yrotation Xrotation Zrotation
								JOINT LeftWrist
								{
									OFFSET -19.846718 0.012763 0.000000
									CHANNELS 3 Yrotation Xrotation Zrotation
									End Site
									{
										OFFSET -14.973145 -0.000001 0.000000
									}
								}
							}
						}
					}
				}
			}
		}
	}
	JOINT RightHip
	{
		OFFSET 9.469263 0.004643 0.045487
		CHANNELS 3 Yrotation Xrotation Zrotation
		JOINT RightKnee
		{
			OFFSET 0.000000 0.002661 -40.478676
			CHANNELS 3 Yrotation Xrotation Zrotation
			JOINT RightAnkle
			{
				OFFSET 0.000000 0.049106 -35.224068
				CHANNELS 3 Yrotation Xrotation Zrotation
				JOINT RightToe
				{
					OFFSET -0.000001 12.539529 -6.151390
					CHANNELS 3 Yrotation Xrotation Zrotation
					End Site
					{
						OFFSET -0.000001 5.044994 -1.291870
					}
				}
			}
		}
	}
	JOINT LeftHip
	{
		OFFSET -9.469263 0.004641 0.045487
		CHANNELS 3 Yrotation Xrotation Zrotation
		JOINT LeftKnee
		{
			OFFSET 0.000000 0.002661 -40.478676
			CHANNELS 3 Yrotation Xrotation Zrotation
			JOINT LeftAnkle
			{
				OFFSET 0.000000 0.049106 -35.224068
				CHANNELS 3 Yrotation Xrotation Zrotation
				JOINT LeftToe
				{
					OFFSET -0.000001 12.539529 -6.151390
					CHANNELS 3 Yrotation Xrotation Zrotation
					End Site
					{
						OFFSET -0.000001 5.044994 -1.291870
					}
				}
			}
		}
	}
}
MOTION
Frames: 12
Frame Time: 0.016667
15.529276 5.125047 82.770424 -5.518730 -0.953846 -104.670778 -0.519389 -6.741098 0.354275 -0.254208 -2.956061 0.235896 -0.254208 -2.956061 0.235895 -0.189472 -2.217146 0.175652 1.930550 -22.283410 -2.023174 2.928037 -5.182084 -3.120906 10.938348 12.988569 1.622066 41.240832 -15.450830 -19.938255 -48.360669 -58.416033 114.174958 -65.613283 38.253537 33.195785 -7.205348 7.265150 -2.870014 -42.628259 -14.556086 23.840521 21.749955 -58.932382 -85.947303 37.455005 26.949652 -67.319376 1.812714 -8.410265 -15.401875 3.320880 -2.996643 -3.554960 1.682387 8.285821 2.337869 -0.563417 -0.304426 0.280327 5.582078 9.969307 8.302925 -2.485029 -6.138443 11.727667 -1.497334 -2.558229 8.409190 0.934033 -2.616351 -0.111212 
15.729439 5.382169 82.787071 -5.506545 -0.948725 -104.698795 -0.482566 -6.850423 0.338630 -0.244136 -2.985389 0.257994 -0.244136 -2.985389 0.257995 -0.181800 -2.239146 0.192258 2.021453 -22.322737 -2.112514 3.068080 -5.253641 -3.257622 10.944248 12.953456 1.639251 41.159372 -15.523254 -19.847533 -48.331587 -58.407844 114.200524 -65.709213 38.291499 33.156504 -7.204260 7.241180 -2.860063 -42.698248 -14.445408 23.851272 21.844231 -58.830926 -85.965335 37.437104 26.859065 -67.350255 1.587583 -8.444601 -15.383227 3.306789 -3.102545 -3.575646 1.922090 8.396521 2.279081 -0.406108 -0.304145 0.366459 4.990367 10.138086 6.844314 -2.101496 -6.454489 10.746225 -2.140298 -2.148732 7.620221 0.952461 -2.214255 -0.127911 
15.978583 5.664495 82.803902 -5.499072 -0.964734 -104.783612 -0.435730 -6.962163 0.340280 -0.236566 -3.014283 0.280045 -0.236566 -3.014284 0.280048 -0.176002 -2.260821 0.208819 2.113649 -22.366914 -2.195976 3.212192 -5.334187 -3.383481 10.963512 12.960750 1.664420 41.072024 -15.598385 -19.778131 -48.328506 -58.408404 114.236690 -65.805116 38.329171 33.115708 -7.198254 7.243236 -2.856606 -42.764166 -14.294497 23.873924 21.965463 -58.758813 -86.014997 37.403612 26.738230 -67.381613 1.364526 -8.513523 -15.336121 3.280630 -3.194513 -3.567067 2.115809 8.491505 2.198070 -0.212047 -0.289303 0.490533 4.474823 10.209805 5.687569 -1.681373 -6.674872 9.745709 -2.847184 -2.024670 6.809525 0.986209 -1.712462 -0.166968 
16.270523 5.941534 82.820549 -5.464568 -0.971398 -104.937278 -0.402721 -7.037449 0.367604 -0.231343 -3.038175 0.298310 -0.231343 -3.038176 0.298312 -0.171983 -2.278746 0.222530 2.205229 -22.422700 -2.271353 3.357619 -5.436285 -3.495128 10.976816 12.984859 1.661293 40.998299 -15.686501 -19.711924 -48.340408 -58.398937 114.263860 -65.867933 38.350624 33.085648 -7.187592 7.242362 -2.850421 -42.823773 -14.132468 23.882296 22.092435 -58.696474 -86.079652 37.362887 26.603109 -67.409186 1.128893 -8.580305 -15.255222 3.244156 -3.284663 -3.573228 2.299379 8.586259 2.183192 -0.021248 -0.261035 0.584600 3.910385 10.210061 4.886022 -1.216154 -6.775949 8.640922 -3.472620 -2.115356 5.957622 1.002456 -1.173641 -0.191722 
16.621250 6.226189 82.838280 -5.419157 -0.975383 -105.124411 -0.379154 -7.093683 0.396681 -0.229213 -3.054131 0.313606 -0.229213 -3.054131 0.313607 -0.170301 -2.290718 0.234001 2.301295 -22.493408 -2.344242 3.512103 -5.566001 -3.601348 10.986539 13.009496 1.647124 40.948719 -15.749313 -19.664931 -48.359450 -58.393528 114.267268 -65.896996 38.354074 33.075515 -7.173559 7.234117 -2.850373 -42.875621 -13.996937 23.875893 22.237330 -58.629886 -86.165971 37.323979 26.481887 -67.441739 0.885525 -8.668665 -15.178229 3.193543 -3.361756 -3.536954 2.444740 8.673517 2.144689 0.192464 -0.215189 0.713286 3.379151 10.129986 4.381327 -0.765313 -6.790314 7.394075 -3.931602 -2.280209 5.244659 0.927105 -0.706811 -0.214493 
17.025270 6.490283 82.856544 -5.328264 -0.972482 -105.388767 -0.355376 -7.101531 0.460230 -0.227614 -3.064089 0.320467 -0.227614 -3.064088 0.320467 -0.169062 -2.298186 0.239151 2.393041 -22.575303 -2.410732 3.660757 -5.716540 -3.697484 10.986110 13.044528 1.661309 40.914732 -15.788913 -19.648675 -48.384992 -58.382654 114.266333 -65.894325 38.347035 33.073705 -7.180192 7.264674 -2.839410 -42.919529 -13.945901 23.878681 22.360185 -58.553825 -86.247462 37.297102 26.404405 -67.470904 0.638015 -8.749779 -15.041743 3.143267 -3.430957 -3.433583 2.564936 8.772483 2.054374 0.392169 -0.152294 0.808749 2.867112 10.010224 4.111077 -0.373952 -6.724121 6.095923 -4.091314 -2.553700 4.665759 0.712731 -0.254543 -0.218849 
17.470810 6.687041 82.872101 -5.210451 -0.959547 -105.710851 -0.346494 -7.067029 0.545756 -0.230863 -3.065208 0.324069 -0.230863 -3.065209 0.324070 -0.171479 -2.299030 0.241837 2.486837 -22.675202 -2.477914 3.813259 -5.900411 -3.794737 11.002929 13.088898 1.671654 40.892889 -15.829996 -19.656485 -48.408539 -58.377442 114.254441 -65.887010 38.346451 33.074597 -7.175897 7.242588 -2.840929 -42.952683 -13.918259 23.845770 22.426366 -58.488221 -86.283485 37.276802 26.378220 -67.495813 0.421457 -8.840351 -14.849617 3.070747 -3.485372 -3.296802 2.667169 8.878700 1.989248 0.560020 -0.063735 0.848515 2.307605 9.843126 3.982545 -0.056388 -6.611320 4.926915 -3.871209 -2.936506 4.169506 0.376020 0.218585 -0.184795 
17.902943 6.754141 82.879868 -5.074763 -0.899649 -106.073302 -0.391556 -6.992011 0.636211 -0.239844 -3.062949 0.326194 -0.239845 -3.062949 0.326194 -0.178205 -2.297342 0.243384 2.585949 -22.783389 -2.547095 3.975001 -6.099564 -3.894471 11.027410 13.121773 1.676643 40.893927 -15.848605 -19.673489 -48.418408 -58.380618 114.230754 -65.882202 38.352192 33.074771 -7.150555 7.234915 -2.841469 -42.963515 -13.937991 23.788997 22.409774 -58.466371 -86.269558 37.268569 26.390891 -67.517697 0.239165 -8.914160 -14.616714 2.970080 -3.543574 -3.212131 2.782883 9.028586 2.148998 0.643129 0.017927 0.728554 1.609149 9.611218 3.952185 0.187840 -6.476912 4.049944 -3.249684 -3.356048 3.683271 -0.028347 0.694638 -0.101906 
18.326668 6.734205 82.879028 -4.966322 -0.814429 -106.455404 -0.470656 -6.914742 0.703619 -0.252364 -3.054250 0.327420 -0.252364 -3.054251 0.327422 -0.187590 -2.290824 0.244244 2.683494 -22.905125 -2.619325 4.133397 -6.323780 -4.000556 11.028002 13.090184 1.656131 40.922119 -15.820957 -19.659293 -48.440637 -58.387326 114.213249 -65.858316 38.353257 33.080928 -7.132657 7.228464 -2.847266 -42.943373 -13.990685 23.735730 22.345727 -58.479438 -86.238624 37.278715 26.427508 -67.529131 0.082357 -9.006348 -14.376918 2.832415 -3.618850 -3.142659 2.895619 9.226431 2.418689 0.678969 0.083491 0.524530 0.961958 9.281205 4.029783 0.349382 -6.292929 3.458771 -2.462361 -3.858488 3.298927 -0.433607 1.169297 -0.029783 
18.762289 6.696561 82.871239 -4.892224 -0.717422 -106.862749 -0.563895 -6.843327 0.750119 -0.269202 -3.040852 0.327663 -0.269202 -3.040852 0.327664 -0.200224 -2.280785 0.244348 2.774238 -23.040636 -2.694498 4.279090 -6.573533 -4.114221 11.008268 13.025147 1.614978 40.965443 -15.774127 -19.615472 -48.490491 -58.396806 114.210510 -65.812780 38.337814 33.090071 -7.124273 7.206818 -2.857140 -42.903454 -14.064813 23.681652 22.262913 -58.496807 -86.213148 37.289968 26.489220 -67.524534 -0.083829 -9.112238 -14.114273 2.666163 -3.739762 -3.053925 2.987168 9.486442 2.631382 0.711348 0.123669 0.324741 0.468748 8.907536 4.289224 0.437477 -6.134015 3.096661 -1.749752 -4.406772 3.044270 -0.727167 1.621378 0.006668 
19.218689 6.690147 82.859573 -4.864882 -0.616757 -107.287245 -0.660898 -6.782771 0.775448 -0.293813 -3.027097 0.324751 -0.293813 -3.027098 0.324753 -0.218698 -2.270481 0.242051 2.857574 -23.184372 -2.772053 4.411099 -6.838534 -4.234512 11.004139 12.978300 1.583168 41.009562 -15.758005 -19.593246 -48.538155 -58.401307 114.194602 -65.758712 38.309510 33.098281 -7.112512 7.174479 -2.872382 -42.859072 -14.138095 23.642591 22.188348 -58.515282 -86.205826 37.302190 26.560244 -67.516277 -0.303338 -9.231090 -13.827641 2.516517 -3.933915 -2.952718 3.045502 9.821747 2.821975 0.753041 0.124291 0.149212 0.080021 8.457467 4.754057 0.494669 -5.957258 2.886022 -1.191885 -4.957376 2.848649 -0.869252 2.006901 0.013249 
19.704182 6.742343 82.847427 -4.906364 -0.499759 -107.719856 -0.773476 -6.745546 0.775629 -0.325331 -3.017909 0.317766 -0.325331 -3.017910 0.317766 -0.242372 -2.263602 0.236659 2.931789 -23.333699 -2.853137 4.526036 -7.113900 -4.363865 11.002137 12.921932 1.553908 41.048843 -15.753322 -19.569518 -48.570298 -58.406143 114.152603 -65.700648 38.279850 33.109851 -7.099685 7.116912 -2.890844 -42.808791 -14.177571 23.596319 22.135286 -58.554317 -86.232156 37.313033 26.655676 -67.524664 -0.608133 -9.391774 -13.538372 2.366684 -4.165011 -2.826107 3.045460 10.131799 2.851820 0.851351 0.158251 0.060615 -0.256089 7.903572 5.324784 0.497006 -5.772090 2.774346 -0.798465 -5.497547 2.728021 -0.865309 2.343697 0.007149 
